# xmcd
#
# Track frame offsets:
#	150
#	16814
#	31697
#	50134
#	66305
#	85201
#	106368
#	124139
#	154087
#	176615
#	201504
#	215998
#	234332
#
# Disc length: 3359 seconds
#
# Revision: 1
# Processed by: cddbd v1.5.2PL0 Copyright (c) Steve Scherf et al.
# Submitted via: audiograbber 1.82.02
#
DISCID=b70d1d0d
DTITLE=Alison Krauss and Union Station - Delaware Bluegrass Festival
DYEAR=0000
DGENRE=Bluegrass
TTITLE0=Every Time You Say Goodbye
TTITLE1=The Road Is A Lover
TTITLE2=Instrumental
TTITLE3=Winter Of A Broken Heart
TTITLE4=It's Over
TTITLE5=In The Palm Of Your Hand
TTITLE6=Wild Bill Jones
TTITLE7=Two Highways
TTITLE8=When You Say Nothing At All
TTITLE9=Oh, Atlanta
TTITLE10=Instrumental (Bill Monroe Tune)
TTITLE11=I Don't Love You No More (Featuring Dan Paisley)
TTITLE12=Hey Hey Hammer
EXTD=Dream`master
EXTT0=
EXTT1=
EXTT2=
EXTT3=
EXTT4=
EXTT5=
EXTT6=
EXTT7=
EXTT8=
EXTT9=
EXTT10=
EXTT11=
EXTT12=
PLAYORDER=
